<svg xmlns="http://www.w3.org/2000/svg" width="110.001" height="120.799" viewBox="0 0 110.001 120.799"><path d="M12430.026,22476.5a5,5,0,1,1,9.893,1.4A60.619,60.619,0,0,1,12430.026,22476.5Zm19.971.506a5,5,0,0,1,9.851-1.236,60.21,60.21,0,0,1-9.809,1.887A5.1,5.1,0,0,1,12450,22477Zm20-20a5,5,0,1,1,5,5A5,5,0,0,1,12470,22457Zm-20,0a5,5,0,1,1,5,5A5,5,0,0,1,12450,22457Zm-20,0a5,5,0,1,1,5,5A4.994,4.994,0,0,1,12430,22457Zm-20,0a5,5,0,1,1,5,5A5,5,0,0,1,12410,22457Zm-16.116-4.875A5.006,5.006,0,0,1,12400,22457a4.97,4.97,0,0,1-.452,2.076A60.658,60.658,0,0,1,12393.884,22452.127Zm98.985.352q-1.327,1.866-2.789,3.629A5,5,0,0,1,12492.869,22452.479ZM12490,22437a5,5,0,1,1,5,5A5,5,0,0,1,12490,22437Zm-20,0a5,5,0,1,1,5,5A5,5,0,0,1,12470,22437Zm-20,0a5,5,0,1,1,5,5A5,5,0,0,1,12450,22437Zm-20,0a5,5,0,1,1,5,5A5,5,0,0,1,12430,22437Zm-20,0a5,5,0,1,1,5,5A5,5,0,0,1,12410,22437Zm-20,0a5,5,0,1,1,5,5A5,5,0,0,1,12390,22437Zm100-20a5,5,0,1,1,5,5A5,5,0,0,1,12490,22417Zm-20,0a5,5,0,1,1,5,5A5,5,0,0,1,12470,22417Zm-20,0a5,5,0,1,1,5,5A5,5,0,0,1,12450,22417Zm-20,0a5,5,0,1,1,5,5A5,5,0,0,1,12430,22417Zm-20,0a5,5,0,1,1,5,5A5,5,0,0,1,12410,22417Zm-20,0a5,5,0,1,1,5,5A5,5,0,0,1,12390,22417Zm100-20a5,5,0,1,1,5,5A5,5,0,0,1,12490,22397Zm-20,0a5,5,0,1,1,5,5A5,5,0,0,1,12470,22397Zm-20,0a5,5,0,1,1,5,5A5,5,0,0,1,12450,22397Zm-20,0a5,5,0,1,1,5,5A4.994,4.994,0,0,1,12430,22397Zm-20,0a5,5,0,1,1,5,5A5,5,0,0,1,12410,22397Zm-20,0a5,5,0,1,1,5,5A5,5,0,0,1,12390,22397Zm80-20a5,5,0,1,1,5,5A5,5,0,0,1,12470,22377Zm-20,0a5,5,0,1,1,5,5A5,5,0,0,1,12450,22377Zm-20,0a5,5,0,1,1,5,5A5,5,0,0,1,12430,22377Zm-20,0a5,5,0,1,1,5,5A5,5,0,0,1,12410,22377Zm-15.478,4.977a60.818,60.818,0,0,1,5.293-6.334A5,5,0,0,1,12395,22382C12394.841,22382,12394.681,22381.99,12394.522,22381.977Zm55.487-24.633a60.37,60.37,0,0,1,9.51,1.8,5,5,0,0,1-9.51-1.8Zm-19.792,1.117a60.342,60.342,0,0,1,9.78-1.363,5,5,0,0,1-9.78,1.363Z" transform="translate(-12389.998 -22357.098)" fill="#f2f1ed"></path></svg>